<svg class="img-fluid" id="outputsvg" xmlns="http://www.w3.org/2000/svg"
    style="transform: none; transform-origin: 50% 50%; cursor: move; max-height: none;" width="337" height="164"
    viewBox="0 0 3370 1640">
    <g id="l4yDjlnDkGEDJfrYSIYXPei" fill='#55e794' style="transform: none;">
        <g style="transform: none;">
            <path id="p17u0xu7sU"
                d="M10 1060 c0 -314 2 -570 4 -570 2 0 44 54 95 119 l91 120 0 450 0 451 -95 0 -95 0 0 -570z"></path>
            <path id="p6iWoiLll"
                d="M615 880 l-600 -749 -3 -61 -3 -60 73 0 73 1 500 629 c275 347 506 630 513 630 9 0 12 -133 12 -630 l0 -630 483 0 482 1 191 262 190 262 -41 53 c-23 29 -46 57 -52 63 -7 7 -64 -62 -188 -230 l-177 -241 -344 0 -344 0 0 280 0 280 360 0 360 0 0 80 0 80 -360 0 -360 0 0 365 0 365 -82 0 -83 0 -600 -750z">
            </path>
            <path id="p065YAMcG"
                d="M2039 1523 c44 -60 197 -265 340 -458 143 -192 376 -509 518 -702 l258 -353 98 0 c53 0 97 2 97 5 0 2 -131 181 -292 397 -160 216 -293 403 -296 414 -3 16 71 123 282 408 157 213 286 389 286 391 0 3 -44 5 -97 5 l-98 -1 -235 -324 c-130 -181 -242 -325 -250 -325 -8 0 -121 147 -250 325 l-235 325 -102 0 -103 0 79 -107z">
            </path>
        </g>
    </g>
</svg>